# Blender 4.0.2
# www.blender.org
mtllib tessellated_cube.mtl
o Cube
v -0.500000 -0.500000 0.500000
v -0.500000 0.500000 0.500000
v -0.500000 -0.500000 -0.500000
v -0.500000 0.500000 -0.500000
v 0.500000 -0.500000 0.500000
v 0.500000 0.500000 0.500000
v 0.500000 -0.500000 -0.500000
v 0.500000 0.500000 -0.500000
v -0.500000 -0.500000 -0.300000
v -0.500000 -0.500000 -0.100000
v -0.500000 -0.500000 0.100000
v -0.500000 -0.500000 0.300000
v -0.500000 -0.300000 0.500000
v -0.500000 -0.100000 0.500000
v -0.500000 0.100000 0.500000
v -0.500000 0.300000 0.500000
v -0.500000 0.500000 0.300000
v -0.500000 0.500000 0.100000
v -0.500000 0.500000 -0.100000
v -0.500000 0.500000 -0.300000
v -0.500000 0.300000 -0.500000
v -0.500000 0.100000 -0.500000
v -0.500000 -0.100000 -0.500000
v -0.500000 -0.300000 -0.500000
v 0.300000 -0.500000 -0.500000
v 0.100000 -0.500000 -0.500000
v -0.100000 -0.500000 -0.500000
v -0.300000 -0.500000 -0.500000
v -0.300000 0.500000 -0.500000
v -0.100000 0.500000 -0.500000
v 0.100000 0.500000 -0.500000
v 0.300000 0.500000 -0.500000
v 0.500000 0.300000 -0.500000
v 0.500000 0.100000 -0.500000
v 0.500000 -0.100000 -0.500000
v 0.500000 -0.300000 -0.500000
v 0.500000 -0.500000 0.300000
v 0.500000 -0.500000 0.100000
v 0.500000 -0.500000 -0.100000
v 0.500000 -0.500000 -0.300000
v 0.500000 0.500000 -0.300000
v 0.500000 0.500000 -0.100000
v 0.500000 0.500000 0.100000
v 0.500000 0.500000 0.300000
v 0.500000 0.300000 0.500000
v 0.500000 0.100000 0.500000
v 0.500000 -0.100000 0.500000
v 0.500000 -0.300000 0.500000
v -0.300000 -0.500000 0.500000
v -0.100000 -0.500000 0.500000
v 0.100000 -0.500000 0.500000
v 0.300000 -0.500000 0.500000
v 0.300000 0.500000 0.500000
v 0.100000 0.500000 0.500000
v -0.100000 0.500000 0.500000
v -0.300000 0.500000 0.500000
v 0.300000 0.500000 -0.300000
v 0.300000 0.500000 -0.100000
v 0.300000 0.500000 0.100000
v 0.300000 0.500000 0.300000
v 0.100000 0.500000 -0.300000
v 0.100000 0.500000 -0.100000
v 0.100000 0.500000 0.100000
v 0.100000 0.500000 0.300000
v -0.100000 0.500000 -0.300000
v -0.100000 0.500000 -0.100000
v -0.100000 0.500000 0.100000
v -0.100000 0.500000 0.300000
v -0.300000 0.500000 -0.300000
v -0.300000 0.500000 -0.100000
v -0.300000 0.500000 0.100000
v -0.300000 0.500000 0.300000
v -0.300000 -0.500000 -0.300000
v -0.300000 -0.500000 -0.100000
v -0.300000 -0.500000 0.100000
v -0.300000 -0.500000 0.300000
v -0.100000 -0.500000 -0.300000
v -0.100000 -0.500000 -0.100000
v -0.100000 -0.500000 0.100000
v -0.100000 -0.500000 0.300000
v 0.100000 -0.500000 -0.300000
v 0.100000 -0.500000 -0.100000
v 0.100000 -0.500000 0.100000
v 0.100000 -0.500000 0.300000
v 0.300000 -0.500000 -0.300000
v 0.300000 -0.500000 -0.100000
v 0.300000 -0.500000 0.100000
v 0.300000 -0.500000 0.300000
v 0.300000 -0.300000 0.500000
v 0.100000 -0.300000 0.500000
v -0.100000 -0.300000 0.500000
v -0.300000 -0.300000 0.500000
v 0.300000 -0.100000 0.500000
v 0.100000 -0.100000 0.500000
v -0.100000 -0.100000 0.500000
v -0.300000 -0.100000 0.500000
v 0.300000 0.100000 0.500000
v 0.100000 0.100000 0.500000
v -0.100000 0.100000 0.500000
v -0.300000 0.100000 0.500000
v 0.300000 0.300000 0.500000
v 0.100000 0.300000 0.500000
v -0.100000 0.300000 0.500000
v -0.300000 0.300000 0.500000
v 0.500000 -0.300000 -0.300000
v 0.500000 -0.300000 -0.100000
v 0.500000 -0.300000 0.100000
v 0.500000 -0.300000 0.300000
v 0.500000 -0.100000 -0.300000
v 0.500000 -0.100000 -0.100000
v 0.500000 -0.100000 0.100000
v 0.500000 -0.100000 0.300000
v 0.500000 0.100000 -0.300000
v 0.500000 0.100000 -0.100000
v 0.500000 0.100000 0.100000
v 0.500000 0.100000 0.300000
v 0.500000 0.300000 -0.300000
v 0.500000 0.300000 -0.100000
v 0.500000 0.300000 0.100000
v 0.500000 0.300000 0.300000
v -0.300000 -0.300000 -0.500000
v -0.100000 -0.300000 -0.500000
v 0.100000 -0.300000 -0.500000
v 0.300000 -0.300000 -0.500000
v -0.300000 -0.100000 -0.500000
v -0.100000 -0.100000 -0.500000
v 0.100000 -0.100000 -0.500000
v 0.300000 -0.100000 -0.500000
v -0.300000 0.100000 -0.500000
v -0.100000 0.100000 -0.500000
v 0.100000 0.100000 -0.500000
v 0.300000 0.100000 -0.500000
v -0.300000 0.300000 -0.500000
v -0.100000 0.300000 -0.500000
v 0.100000 0.300000 -0.500000
v 0.300000 0.300000 -0.500000
v -0.500000 -0.300000 0.300000
v -0.500000 -0.300000 0.100000
v -0.500000 -0.300000 -0.100000
v -0.500000 -0.300000 -0.300000
v -0.500000 -0.100000 0.300000
v -0.500000 -0.100000 0.100000
v -0.500000 -0.100000 -0.100000
v -0.500000 -0.100000 -0.300000
v -0.500000 0.100000 0.300000
v -0.500000 0.100000 0.100000
v -0.500000 0.100000 -0.100000
v -0.500000 0.100000 -0.300000
v -0.500000 0.300000 0.300000
v -0.500000 0.300000 0.100000
v -0.500000 0.300000 -0.100000
v -0.500000 0.300000 -0.300000
vn -1.0000 -0.0000 -0.0000
vn -0.0000 -0.0000 -1.0000
vn 1.0000 -0.0000 -0.0000
vn -0.0000 -0.0000 1.0000
vn -0.0000 -1.0000 -0.0000
vn -0.0000 1.0000 -0.0000
vt 0.800000 0.800000
vt 1.000000 0.800000
vt 1.000000 1.000000
vt 0.800000 1.000000
vt 0.000000 0.800000
vt 0.200000 0.800000
vt 0.200000 1.000000
vt 0.000000 1.000000
vt 0.400000 0.800000
vt 0.400000 1.000000
vt 0.600000 0.800000
vt 0.600000 1.000000
vt 0.000000 0.000000
vt 0.200000 0.000000
vt 0.200000 0.200000
vt 0.000000 0.200000
vt 0.200000 0.400000
vt 0.000000 0.400000
vt 0.200000 0.600000
vt 0.000000 0.600000
vt 0.400000 0.000000
vt 0.400000 0.200000
vt 0.400000 0.400000
vt 0.400000 0.600000
vt 0.600000 0.000000
vt 0.600000 0.200000
vt 0.600000 0.400000
vt 0.600000 0.600000
vt 0.800000 0.000000
vt 0.800000 0.200000
vt 0.800000 0.400000
vt 0.800000 0.600000
vt 1.000000 0.000000
vt 1.000000 0.200000
vt 1.000000 0.400000
vt 1.000000 0.600000
s 0
usemtl Material.001
f 152/1/1 20/2/1 4/3/1 21/4/1
f 136/1/2 32/2/2 8/3/2 33/4/2
f 120/1/3 44/2/3 6/3/3 45/4/3
f 104/1/4 56/2/4 2/3/4 16/4/4
f 88/1/5 37/2/5 5/3/5 52/4/5
f 72/1/6 17/2/6 2/3/6 56/4/6
f 44/5/6 60/6/6 53/7/6 6/8/6
f 60/6/6 64/9/6 54/10/6 53/7/6
f 64/9/6 68/11/6 55/12/6 54/10/6
f 68/11/6 72/1/6 56/4/6 55/12/6
f 8/13/6 32/14/6 57/15/6 41/16/6
f 41/16/6 57/15/6 58/17/6 42/18/6
f 42/18/6 58/17/6 59/19/6 43/20/6
f 43/20/6 59/19/6 60/6/6 44/5/6
f 32/14/6 31/21/6 61/22/6 57/15/6
f 57/15/6 61/22/6 62/23/6 58/17/6
f 58/17/6 62/23/6 63/24/6 59/19/6
f 59/19/6 63/24/6 64/9/6 60/6/6
f 31/21/6 30/25/6 65/26/6 61/22/6
f 61/22/6 65/26/6 66/27/6 62/23/6
f 62/23/6 66/27/6 67/28/6 63/24/6
f 63/24/6 67/28/6 68/11/6 64/9/6
f 30/25/6 29/29/6 69/30/6 65/26/6
f 65/26/6 69/30/6 70/31/6 66/27/6
f 66/27/6 70/31/6 71/32/6 67/28/6
f 67/28/6 71/32/6 72/1/6 68/11/6
f 29/29/6 4/33/6 20/34/6 69/30/6
f 69/30/6 20/34/6 19/35/6 70/31/6
f 70/31/6 19/35/6 18/36/6 71/32/6
f 71/32/6 18/36/6 17/2/6 72/1/6
f 12/5/5 76/6/5 49/7/5 1/8/5
f 76/6/5 80/9/5 50/10/5 49/7/5
f 80/9/5 84/11/5 51/12/5 50/10/5
f 84/11/5 88/1/5 52/4/5 51/12/5
f 3/13/5 28/14/5 73/15/5 9/16/5
f 9/16/5 73/15/5 74/17/5 10/18/5
f 10/18/5 74/17/5 75/19/5 11/20/5
f 11/20/5 75/19/5 76/6/5 12/5/5
f 28/14/5 27/21/5 77/22/5 73/15/5
f 73/15/5 77/22/5 78/23/5 74/17/5
f 74/17/5 78/23/5 79/24/5 75/19/5
f 75/19/5 79/24/5 80/9/5 76/6/5
f 27/21/5 26/25/5 81/26/5 77/22/5
f 77/22/5 81/26/5 82/27/5 78/23/5
f 78/23/5 82/27/5 83/28/5 79/24/5
f 79/24/5 83/28/5 84/11/5 80/9/5
f 26/25/5 25/29/5 85/30/5 81/26/5
f 81/26/5 85/30/5 86/31/5 82/27/5
f 82/27/5 86/31/5 87/32/5 83/28/5
f 83/28/5 87/32/5 88/1/5 84/11/5
f 25/29/5 7/33/5 40/34/5 85/30/5
f 85/30/5 40/34/5 39/35/5 86/31/5
f 86/31/5 39/35/5 38/36/5 87/32/5
f 87/32/5 38/36/5 37/2/5 88/1/5
f 49/5/4 92/6/4 13/7/4 1/8/4
f 92/6/4 96/9/4 14/10/4 13/7/4
f 96/9/4 100/11/4 15/12/4 14/10/4
f 100/11/4 104/1/4 16/4/4 15/12/4
f 5/13/4 48/14/4 89/15/4 52/16/4
f 52/16/4 89/15/4 90/17/4 51/18/4
f 51/18/4 90/17/4 91/19/4 50/20/4
f 50/20/4 91/19/4 92/6/4 49/5/4
f 48/14/4 47/21/4 93/22/4 89/15/4
f 89/15/4 93/22/4 94/23/4 90/17/4
f 90/17/4 94/23/4 95/24/4 91/19/4
f 91/19/4 95/24/4 96/9/4 92/6/4
f 47/21/4 46/25/4 97/26/4 93/22/4
f 93/22/4 97/26/4 98/27/4 94/23/4
f 94/23/4 98/27/4 99/28/4 95/24/4
f 95/24/4 99/28/4 100/11/4 96/9/4
f 46/25/4 45/29/4 101/30/4 97/26/4
f 97/26/4 101/30/4 102/31/4 98/27/4
f 98/27/4 102/31/4 103/32/4 99/28/4
f 99/28/4 103/32/4 104/1/4 100/11/4
f 45/29/4 6/33/4 53/34/4 101/30/4
f 101/30/4 53/34/4 54/35/4 102/31/4
f 102/31/4 54/35/4 55/36/4 103/32/4
f 103/32/4 55/36/4 56/2/4 104/1/4
f 37/5/3 108/6/3 48/7/3 5/8/3
f 108/6/3 112/9/3 47/10/3 48/7/3
f 112/9/3 116/11/3 46/12/3 47/10/3
f 116/11/3 120/1/3 45/4/3 46/12/3
f 7/13/3 36/14/3 105/15/3 40/16/3
f 40/16/3 105/15/3 106/17/3 39/18/3
f 39/18/3 106/17/3 107/19/3 38/20/3
f 38/20/3 107/19/3 108/6/3 37/5/3
f 36/14/3 35/21/3 109/22/3 105/15/3
f 105/15/3 109/22/3 110/23/3 106/17/3
f 106/17/3 110/23/3 111/24/3 107/19/3
f 107/19/3 111/24/3 112/9/3 108/6/3
f 35/21/3 34/25/3 113/26/3 109/22/3
f 109/22/3 113/26/3 114/27/3 110/23/3
f 110/23/3 114/27/3 115/28/3 111/24/3
f 111/24/3 115/28/3 116/11/3 112/9/3
f 34/25/3 33/29/3 117/30/3 113/26/3
f 113/26/3 117/30/3 118/31/3 114/27/3
f 114/27/3 118/31/3 119/32/3 115/28/3
f 115/28/3 119/32/3 120/1/3 116/11/3
f 33/29/3 8/33/3 41/34/3 117/30/3
f 117/30/3 41/34/3 42/35/3 118/31/3
f 118/31/3 42/35/3 43/36/3 119/32/3
f 119/32/3 43/36/3 44/2/3 120/1/3
f 25/5/2 124/6/2 36/7/2 7/8/2
f 124/6/2 128/9/2 35/10/2 36/7/2
f 128/9/2 132/11/2 34/12/2 35/10/2
f 132/11/2 136/1/2 33/4/2 34/12/2
f 3/13/2 24/14/2 121/15/2 28/16/2
f 28/16/2 121/15/2 122/17/2 27/18/2
f 27/18/2 122/17/2 123/19/2 26/20/2
f 26/20/2 123/19/2 124/6/2 25/5/2
f 24/14/2 23/21/2 125/22/2 121/15/2
f 121/15/2 125/22/2 126/23/2 122/17/2
f 122/17/2 126/23/2 127/24/2 123/19/2
f 123/19/2 127/24/2 128/9/2 124/6/2
f 23/21/2 22/25/2 129/26/2 125/22/2
f 125/22/2 129/26/2 130/27/2 126/23/2
f 126/23/2 130/27/2 131/28/2 127/24/2
f 127/24/2 131/28/2 132/11/2 128/9/2
f 22/25/2 21/29/2 133/30/2 129/26/2
f 129/26/2 133/30/2 134/31/2 130/27/2
f 130/27/2 134/31/2 135/32/2 131/28/2
f 131/28/2 135/32/2 136/1/2 132/11/2
f 21/29/2 4/33/2 29/34/2 133/30/2
f 133/30/2 29/34/2 30/35/2 134/31/2
f 134/31/2 30/35/2 31/36/2 135/32/2
f 135/32/2 31/36/2 32/2/2 136/1/2
f 9/5/1 140/6/1 24/7/1 3/8/1
f 140/6/1 144/9/1 23/10/1 24/7/1
f 144/9/1 148/11/1 22/12/1 23/10/1
f 148/11/1 152/1/1 21/4/1 22/12/1
f 1/13/1 13/14/1 137/15/1 12/16/1
f 12/16/1 137/15/1 138/17/1 11/18/1
f 11/18/1 138/17/1 139/19/1 10/20/1
f 10/20/1 139/19/1 140/6/1 9/5/1
f 13/14/1 14/21/1 141/22/1 137/15/1
f 137/15/1 141/22/1 142/23/1 138/17/1
f 138/17/1 142/23/1 143/24/1 139/19/1
f 139/19/1 143/24/1 144/9/1 140/6/1
f 14/21/1 15/25/1 145/26/1 141/22/1
f 141/22/1 145/26/1 146/27/1 142/23/1
f 142/23/1 146/27/1 147/28/1 143/24/1
f 143/24/1 147/28/1 148/11/1 144/9/1
f 15/25/1 16/29/1 149/30/1 145/26/1
f 145/26/1 149/30/1 150/31/1 146/27/1
f 146/27/1 150/31/1 151/32/1 147/28/1
f 147/28/1 151/32/1 152/1/1 148/11/1
f 16/29/1 2/33/1 17/34/1 149/30/1
f 149/30/1 17/34/1 18/35/1 150/31/1
f 150/31/1 18/35/1 19/36/1 151/32/1
f 151/32/1 19/36/1 20/2/1 152/1/1
